<?xml version="1.0" standalone="no"?>
<!DOCTYPE svg PUBLIC "-//W3C//DTD SVG 20010904//EN"
 "http://www.w3.org/TR/2001/REC-SVG-20010904/DTD/svg10.dtd">
<svg version="1.0" xmlns="http://www.w3.org/2000/svg"
 width="200.000000pt" height="200.000000pt" viewBox="0 0 200.000000 200.000000"
 preserveAspectRatio="xMidYMid meet">
<metadata>
Created by potrace 1.11, written by Peter Selinger 2001-2013
</metadata>
<g transform="translate(0.000000,200.000000) scale(0.100000,-0.100000)"
fill="#000000" stroke="none">
<path d="M0 1784 l0 -215 68 5 c37 3 135 8 217 11 822 30 1164 39 1437 40 194
0 243 6 183 21 -13 3 -29 12 -36 20 -10 12 -3 14 37 14 80 0 94 7 94 46 0 24
-4 32 -14 28 -18 -7 -46 22 -46 47 0 21 10 25 27 8 24 -24 33 3 33 96 l0 95
-764 0 -765 0 -3 -32 c-4 -41 -30 -48 -163 -44 -108 3 -137 10 -129 31 3 7 0
16 -5 20 -6 3 -9 11 -6 16 4 5 -29 9 -79 9 l-86 0 0 -216z m1641 106 l46 0 -4
-59 c-2 -34 1 -62 7 -66 21 -13 10 -27 -17 -20 -44 10 -76 34 -65 48 6 8 5 24
-2 45 l-11 33 -33 -34 c-26 -27 -38 -33 -62 -29 -29 4 -53 22 -31 22 6 0 11
13 11 28 0 40 8 45 65 38 28 -3 71 -6 96 -6z m-211 -25 c15 -27 7 -46 -12 -27
-13 13 -92 17 -84 4 3 -5 -9 -6 -27 -3 l-32 5 39 11 c22 6 42 17 44 23 7 23
58 14 72 -13z m-465 -35 c3 -5 -1 -10 -9 -10 -9 0 -16 5 -16 10 0 6 4 10 9 10
6 0 13 -4 16 -10z m-558 -30 c-2 -24 -4 -24 -22 -6 -15 14 -10 26 11 26 7 0
12 -9 11 -20z m248 -20 c3 -5 -3 -10 -14 -10 -12 0 -21 5 -21 10 0 6 6 10 14
10 8 0 18 -4 21 -10z m92 -6 c-3 -3 -12 -4 -19 -1 -8 3 -5 6 6 6 11 1 17 -2
13 -5z m1179 -10 c28 -7 32 -30 7 -41 -10 -4 -41 -8 -69 -8 -37 0 -50 -4 -47
-12 7 -17 -6 -16 -37 2 -19 11 -21 14 -7 15 9 0 17 5 17 10 0 6 9 10 20 10 11
0 29 9 41 21 11 11 27 18 36 15 8 -3 26 -9 39 -12z m-1339 0 c-3 -3 -12 -4
-19 -1 -8 3 -5 6 6 6 11 1 17 -2 13 -5z m-129 -11 c-45 -7 -32 -23 15 -18 23
3 35 2 27 -2 -27 -11 -30 -28 -7 -34 19 -5 17 -6 -11 -11 -30 -4 -35 -1 -53
34 l-19 38 37 -1 c30 -2 32 -3 11 -6z m615 0 c-13 -2 -35 -2 -50 0 -16 2 -5 4
22 4 28 0 40 -2 28 -4z m-245 -10 c-21 -2 -55 -2 -75 0 -21 2 -4 4 37 4 41 0
58 -2 38 -4z m-235 -10 c-13 -2 -35 -2 -50 0 -16 2 -5 4 22 4 28 0 40 -2 28
-4z m40 -40 c-7 -2 -19 -2 -25 0 -7 3 -2 5 12 5 14 0 19 -2 13 -5z m121 -5 c9
-10 34 -11 97 -5 46 4 136 9 199 11 63 3 -13 -6 -170 -19 -157 -13 -311 -28
-343 -33 -32 -4 -60 -5 -63 0 -3 4 3 8 13 8 45 1 217 20 222 25 3 4 -1 10 -9
15 -11 7 -8 10 13 10 16 0 34 -6 41 -12z"/>
<path d="M541 1439 c-10 -11 -21 -33 -24 -47 -10 -52 46 -117 90 -106 24 7 40
34 20 34 -7 0 -21 13 -30 30 -17 29 -17 29 6 45 14 8 32 12 41 9 10 -4 27 -7
39 -8 29 -1 36 -56 12 -93 -16 -25 -16 -26 7 -48 84 -77 165 -52 159 51 -2 33
-69 102 -125 129 -70 33 -166 35 -195 4z m239 -129 c0 -5 -4 -10 -10 -10 -5 0
-10 5 -10 10 0 6 5 10 10 10 6 0 10 -4 10 -10z"/>
<path d="M1990 1411 c0 -45 -15 -62 -25 -30 -4 11 -9 18 -12 15 -3 -3 -25 6
-49 19 -33 18 -44 21 -44 11 0 -8 -4 -16 -8 -18 -8 -3 -121 -275 -137 -328 -8
-28 -32 -86 -47 -113 -5 -11 -7 -22 -4 -25 3 -3 6 0 6 6 0 7 14 12 30 12 30 0
41 14 18 23 -7 3 3 4 22 2 36 -4 70 16 70 42 0 7 6 13 14 13 8 0 19 14 25 30
5 17 16 30 24 30 21 0 67 71 67 103 0 15 5 27 11 27 6 0 8 7 5 16 -4 10 -2 14
6 11 7 -2 11 -11 9 -18 -9 -34 -29 -258 -36 -409 -4 -69 -13 -157 -21 -196 -8
-39 -16 -99 -18 -132 -5 -75 -11 -86 -46 -78 -15 3 -68 1 -116 -5 -49 -5 -161
-14 -249 -19 -88 -5 -182 -12 -210 -15 -27 -2 -126 -8 -220 -11 -93 -4 -172
-8 -175 -9 -3 -1 -84 -4 -180 -9 -96 -4 -283 -14 -415 -21 -132 -8 -250 -15
-262 -15 -23 0 -23 -1 -23 -160 l0 -160 1000 0 1000 0 0 725 c0 399 -2 725 -5
725 -3 0 -5 -18 -5 -39z m-13 -123 c-2 -13 -4 -5 -4 17 -1 22 1 32 4 23 2 -10
2 -28 0 -40z m-1812 -1068 c-3 -5 -12 -10 -18 -10 -7 0 -6 4 3 10 19 12 23 12
15 0z m-75 -30 c-8 -5 -19 -10 -25 -10 -5 0 -3 5 5 10 8 5 20 10 25 10 6 0 3
-5 -5 -10z"/>
<path d="M88 1383 l-88 -4 0 -266 c0 -265 0 -266 20 -248 18 17 21 17 38 2 29
-26 46 -5 59 75 6 40 23 132 37 203 31 164 41 246 30 243 -5 -1 -48 -4 -96 -5z"/>
<path d="M1306 1339 c-26 -6 -53 -24 -79 -52 -60 -64 -97 -118 -97 -141 0 -80
134 -101 200 -31 l23 25 -22 0 c-35 0 -71 43 -69 82 l1 33 4 -32 c8 -63 91
-86 138 -38 32 31 33 56 2 27 -22 -21 -97 -32 -97 -14 1 21 20 34 43 28 16 -4
29 -1 37 9 7 8 20 15 29 15 12 0 10 5 -9 20 -16 14 -36 19 -57 17 -18 -2 -33
1 -33 5 0 10 71 10 88 0 7 -5 26 -6 43 -4 29 4 29 5 13 23 -17 19 -75 40 -104
38 -8 -1 -33 -5 -54 -10z m-96 -179 c0 -5 -4 -10 -10 -10 -5 0 -10 5 -10 10 0
6 5 10 10 10 6 0 10 -4 10 -10z"/>
<path d="M1518 1245 c5 -11 12 -27 15 -35 5 -13 6 -13 6 1 1 8 -6 24 -15 35
-15 19 -15 19 -6 -1z"/>
<path d="M1180 1010 c-9 -6 -10 -10 -3 -10 6 0 15 5 18 10 8 12 4 12 -15 0z"/>
<path d="M429 973 c-15 -2 -37 -15 -49 -28 l-22 -24 23 -30 c25 -31 41 -40 37
-19 -2 7 16 15 42 20 61 11 101 28 93 41 -3 6 -1 7 5 3 23 -14 11 -35 -31 -55
-24 -12 -57 -21 -73 -21 -22 0 -26 -3 -14 -10 12 -8 13 -12 2 -19 -12 -7 -11
-13 1 -37 36 -69 101 -91 162 -55 46 27 59 26 82 -2 10 -13 25 -27 33 -32 13
-8 13 -7 0 10 -14 17 -13 18 5 13 11 -3 29 -9 40 -13 12 -4 15 -3 9 2 -8 5 -5
13 12 26 13 10 24 13 24 7 0 -5 7 -10 15 -10 8 0 20 -10 26 -22 17 -33 28 -38
81 -38 54 0 96 29 114 78 11 30 10 32 -22 51 -45 27 -44 41 3 30 23 -5 42 -4
47 1 7 7 2 10 -13 10 -40 0 -16 24 27 27 31 2 42 -1 42 -11 0 -8 -6 -17 -12
-20 -7 -3 -1 -4 15 -2 23 3 26 0 22 -14 -8 -24 13 -36 22 -13 13 37 36 53 76
53 22 0 38 2 35 5 -5 5 -241 40 -328 49 -48 5 -51 4 -28 -6 50 -21 49 -77 -2
-98 -17 -7 -50 -10 -76 -7 -100 11 -98 105 2 120 19 3 12 5 -21 6 -27 1 -60 4
-73 7 l-22 6 17 -31 18 -32 -32 -29 c-17 -15 -29 -30 -27 -33 12 -12 -78 12
-101 27 -43 28 -32 85 20 99 16 5 15 6 -5 5 -14 -1 -38 4 -53 10 -27 12 -93
14 -148 5z m91 -33 c0 -9 -61 -30 -88 -30 -8 0 -12 6 -9 13 2 6 16 11 30 9 14
-1 28 2 32 8 8 13 35 13 35 0z m275 -120 c9 -15 -6 -60 -20 -60 -20 0 -28 37
-13 54 15 18 25 20 33 6z m-255 -20 c0 -5 -9 -10 -20 -10 -11 0 -20 5 -20 10
0 6 9 10 20 10 11 0 20 -4 20 -10z m190 -9 c0 -10 -7 -21 -15 -25 -15 -5 -22
24 -8 37 12 13 23 7 23 -12z m250 -11 c0 -5 -4 -10 -10 -10 -5 0 -10 5 -10 10
0 6 5 10 10 10 6 0 10 -4 10 -10z m-70 -14 c0 -11 -19 -15 -25 -6 -3 5 1 10 9
10 9 0 16 -2 16 -4z"/>
<path d="M1323 845 c15 -13 27 -29 27 -35 0 -5 5 -10 10 -10 6 0 10 5 10 10 0
14 -50 60 -64 60 -6 0 1 -12 17 -25z"/>
</g>
</svg>
